<svg xmlns="http://www.w3.org/2000/svg" xmlns:xlink="http://www.w3.org/1999/xlink" width="40" zoomAndPan="magnify" viewBox="0 0 30 30.000001" height="40" preserveAspectRatio="xMidYMid meet" version="1.0"><defs><clipPath id="ec4815e57d"><path d="M 0.484375 2.902344 L 29.515625 2.902344 L 29.515625 26.128906 L 0.484375 26.128906 Z M 0.484375 2.902344 " clip-rule="nonzero"/></clipPath><clipPath id="6a59ca6f85"><path d="M 10.71875 13.351562 L 19.425781 13.351562 L 19.425781 22 L 10.71875 22 Z M 10.71875 13.351562 " clip-rule="nonzero"/></clipPath></defs><g clip-path="url(#ec4815e57d)"><path fill="#ffffff" d="M 29.121094 10.414062 C 28.8125 9.996094 28.335938 9.757812 27.8125 9.757812 L 25.226562 9.757812 L 25.226562 7.804688 C 25.226562 6.726562 24.351562 5.851562 23.273438 5.851562 L 11.523438 5.851562 L 9.113281 3.140625 C 8.992188 3 8.8125 2.921875 8.628906 2.921875 L 2.441406 2.921875 C 1.367188 2.921875 0.492188 3.796875 0.492188 4.875 L 0.492188 24.078125 C 0.492188 25.15625 1.367188 26.03125 2.441406 26.03125 L 23.851562 26.03125 C 24.570312 26.03125 25.199219 25.570312 25.410156 24.878906 L 29.371094 11.859375 C 29.523438 11.359375 29.429688 10.835938 29.121094 10.414062 Z M 1.792969 4.875 C 1.792969 4.515625 2.085938 4.222656 2.441406 4.222656 L 8.335938 4.222656 L 10.746094 6.933594 C 10.867188 7.074219 11.046875 7.152344 11.230469 7.152344 L 23.273438 7.152344 C 23.632812 7.152344 23.925781 7.445312 23.925781 7.804688 L 23.925781 9.757812 L 6.421875 9.757812 C 5.703125 9.757812 5.074219 10.21875 4.863281 10.910156 L 1.792969 21.003906 Z M 28.125 11.480469 L 24.160156 24.496094 C 24.121094 24.632812 23.996094 24.730469 23.851562 24.730469 L 2.460938 24.730469 C 2.316406 24.730469 2.234375 24.648438 2.199219 24.597656 C 2.160156 24.546875 2.105469 24.445312 2.148438 24.308594 L 6.109375 11.289062 C 6.152344 11.148438 6.277344 11.058594 6.421875 11.058594 L 27.8125 11.058594 C 27.957031 11.058594 28.039062 11.140625 28.074219 11.1875 C 28.113281 11.242188 28.167969 11.34375 28.125 11.480469 Z M 28.125 11.480469 " fill-opacity="1" fill-rule="nonzero"/></g><g clip-path="url(#6a59ca6f85)"><path fill="#ffffff" d="M 14.988281 13.339844 C 14.792969 13.34375 14.628906 13.414062 14.492188 13.554688 C 14.355469 13.695312 14.289062 13.863281 14.292969 14.058594 L 14.292969 16.890625 L 11.460938 16.890625 C 11.261719 16.886719 11.09375 16.953125 10.953125 17.09375 C 10.8125 17.230469 10.742188 17.398438 10.742188 17.597656 C 10.742188 17.792969 10.8125 17.960938 10.953125 18.101562 C 11.09375 18.238281 11.261719 18.308594 11.460938 18.304688 L 14.292969 18.304688 L 14.292969 21.132812 C 14.289062 21.332031 14.355469 21.5 14.496094 21.640625 C 14.632812 21.78125 14.800781 21.851562 15 21.851562 C 15.195312 21.851562 15.363281 21.78125 15.503906 21.640625 C 15.640625 21.5 15.710938 21.332031 15.707031 21.132812 L 15.707031 18.304688 L 18.535156 18.304688 C 18.734375 18.308594 18.902344 18.238281 19.042969 18.101562 C 19.183594 17.960938 19.253906 17.792969 19.253906 17.597656 C 19.253906 17.398438 19.183594 17.230469 19.042969 17.09375 C 18.902344 16.953125 18.734375 16.886719 18.535156 16.890625 L 15.707031 16.890625 L 15.707031 14.058594 C 15.710938 13.859375 15.640625 13.6875 15.5 13.546875 C 15.359375 13.40625 15.1875 13.339844 14.988281 13.339844 Z M 14.988281 13.339844 " fill-opacity="1" fill-rule="nonzero"/></g></svg>