<svg xmlns="http://www.w3.org/2000/svg" xmlns:xlink="http://www.w3.org/1999/xlink" width="1000" zoomAndPan="magnify" viewBox="0 0 750 749.999995" height="1000" preserveAspectRatio="xMidYMid meet" version="1.0"><rect x="-75" width="900" fill="#ffffff" y="-74.999999" height="899.999994" fill-opacity="1"/><rect x="-75" width="900" fill="#e7e5eb" y="-74.999999" height="899.999994" fill-opacity="1"/><path fill="#7c52b3" d="M 211.753906 239.371094 C 211.757812 236.6875 211.824219 234.003906 211.960938 231.324219 C 212.09375 228.640625 212.292969 225.964844 212.558594 223.292969 C 212.824219 220.621094 213.15625 217.957031 213.554688 215.304688 C 213.949219 212.648438 214.410156 210.003906 214.9375 207.371094 C 215.460938 204.738281 216.050781 202.121094 216.707031 199.515625 C 217.359375 196.910156 218.078125 194.324219 218.859375 191.757812 C 219.640625 189.1875 220.480469 186.640625 221.386719 184.113281 C 222.292969 181.585938 223.261719 179.082031 224.289062 176.601562 C 225.320312 174.121094 226.40625 171.667969 227.554688 169.242188 C 228.703125 166.816406 229.914062 164.417969 231.179688 162.050781 C 232.445312 159.683594 233.769531 157.347656 235.148438 155.046875 C 236.53125 152.742188 237.96875 150.476562 239.460938 148.246094 C 240.953125 146.011719 242.496094 143.820312 244.097656 141.664062 C 245.695312 139.507812 247.347656 137.390625 249.050781 135.316406 C 250.753906 133.238281 252.507812 131.207031 254.3125 129.21875 C 256.113281 127.230469 257.964844 125.285156 259.863281 123.386719 C 261.761719 121.488281 263.703125 119.636719 265.695312 117.832031 C 267.683594 116.03125 269.714844 114.277344 271.789062 112.574219 C 273.863281 110.871094 275.980469 109.21875 278.136719 107.617188 C 280.292969 106.019531 282.488281 104.472656 284.71875 102.980469 C 286.949219 101.488281 289.21875 100.050781 291.519531 98.667969 C 293.820312 97.289062 296.15625 95.964844 298.523438 94.695312 C 300.890625 93.429688 303.289062 92.222656 305.714844 91.074219 C 308.140625 89.921875 310.59375 88.835938 313.074219 87.804688 C 315.550781 86.777344 318.054688 85.808594 320.582031 84.902344 C 323.109375 83.996094 325.660156 83.152344 328.226562 82.371094 C 330.796875 81.589844 333.382812 80.871094 335.984375 80.21875 C 338.589844 79.5625 341.207031 78.972656 343.839844 78.445312 C 346.472656 77.921875 349.117188 77.457031 351.773438 77.0625 C 354.429688 76.664062 357.089844 76.335938 359.761719 76.070312 C 362.433594 75.804688 365.109375 75.601562 367.792969 75.46875 C 370.472656 75.332031 373.15625 75.265625 375.84375 75.261719 C 592.722656 82.929688 593.152344 395.125 376.398438 403.457031 C 373.707031 403.464844 371.019531 403.402344 368.332031 403.277344 C 365.644531 403.152344 362.960938 402.960938 360.28125 402.703125 C 357.605469 402.445312 354.933594 402.121094 352.273438 401.734375 C 349.609375 401.34375 346.957031 400.890625 344.320312 400.371094 C 341.679688 399.851562 339.054688 399.269531 336.441406 398.621094 C 333.832031 397.972656 331.238281 397.261719 328.660156 396.484375 C 326.085938 395.710938 323.527344 394.871094 320.992188 393.972656 C 318.460938 393.070312 315.949219 392.105469 313.460938 391.082031 C 310.972656 390.058594 308.511719 388.972656 306.078125 387.828125 C 303.640625 386.683594 301.238281 385.476562 298.863281 384.214844 C 296.488281 382.949219 294.144531 381.628906 291.832031 380.25 C 289.523438 378.871094 287.25 377.4375 285.007812 375.945312 C 282.769531 374.457031 280.566406 372.910156 278.402344 371.3125 C 276.238281 369.714844 274.117188 368.0625 272.03125 366.359375 C 269.949219 364.65625 267.910156 362.902344 265.914062 361.101562 C 263.917969 359.296875 261.964844 357.445312 260.058594 355.546875 C 258.15625 353.648438 256.296875 351.703125 254.488281 349.710938 C 252.675781 347.722656 250.917969 345.6875 249.207031 343.609375 C 247.496094 341.535156 245.839844 339.417969 244.230469 337.257812 C 242.625 335.097656 241.074219 332.902344 239.574219 330.667969 C 238.078125 328.433594 236.636719 326.164062 235.25 323.859375 C 233.863281 321.550781 232.53125 319.214844 231.261719 316.84375 C 229.988281 314.472656 228.777344 312.070312 227.621094 309.640625 C 226.46875 307.210938 225.375 304.753906 224.34375 302.269531 C 223.308594 299.785156 222.339844 297.277344 221.429688 294.742188 C 220.519531 292.210938 219.671875 289.660156 218.886719 287.085938 C 218.105469 284.511719 217.382812 281.921875 216.726562 279.3125 C 216.070312 276.703125 215.476562 274.078125 214.949219 271.441406 C 214.421875 268.804688 213.957031 266.152344 213.558594 263.492188 C 213.164062 260.832031 212.832031 258.164062 212.5625 255.484375 C 212.296875 252.808594 212.097656 250.125 211.960938 247.4375 C 211.828125 244.753906 211.757812 242.0625 211.753906 239.371094 Z M 541.921875 403.535156 C 540.835938 402.867188 539.707031 402.28125 538.535156 401.777344 C 537.363281 401.273438 536.164062 400.855469 534.933594 400.523438 C 533.699219 400.195312 532.453125 399.953125 531.1875 399.800781 C 529.921875 399.648438 528.648438 399.589844 527.375 399.621094 C 526.101562 399.652344 524.835938 399.777344 523.578125 399.988281 C 522.320312 400.203125 521.085938 400.503906 519.871094 400.898438 C 518.660156 401.289062 517.480469 401.765625 516.335938 402.324219 C 515.191406 402.886719 514.089844 403.527344 513.039062 404.246094 C 510.597656 406.230469 508.113281 408.160156 505.585938 410.035156 C 503.058594 411.914062 500.496094 413.734375 497.890625 415.5 C 495.285156 417.265625 492.644531 418.976562 489.96875 420.628906 C 487.289062 422.28125 484.578125 423.875 481.832031 425.410156 C 479.085938 426.945312 476.308594 428.421875 473.496094 429.835938 C 470.6875 431.253906 467.847656 432.609375 464.980469 433.902344 C 462.109375 435.195312 459.214844 436.425781 456.292969 437.59375 C 453.371094 438.761719 450.425781 439.867188 447.457031 440.910156 C 444.488281 441.953125 441.5 442.929688 438.488281 443.84375 C 435.476562 444.757812 432.449219 445.605469 429.398438 446.386719 C 426.351562 447.171875 423.289062 447.886719 420.210938 448.539062 C 417.132812 449.1875 414.042969 449.773438 410.9375 450.289062 C 407.832031 450.808594 404.71875 451.257812 401.597656 451.640625 C 398.472656 452.023438 395.34375 452.339844 392.207031 452.589844 C 389.070312 452.839844 385.929688 453.019531 382.785156 453.132812 C 379.640625 453.246094 376.496094 453.292969 373.347656 453.269531 C 370.203125 453.246094 367.058594 453.15625 363.914062 453 C 360.773438 452.84375 357.632812 452.617188 354.5 452.324219 C 351.367188 452.03125 348.242188 451.671875 345.125 451.246094 C 342.007812 450.816406 338.902344 450.324219 335.804688 449.761719 C 332.710938 449.203125 329.628906 448.574219 326.558594 447.878906 C 323.488281 447.1875 320.4375 446.425781 317.398438 445.601562 C 314.363281 444.777344 311.347656 443.886719 308.347656 442.929688 C 305.351562 441.972656 302.375 440.953125 299.417969 439.871094 C 296.464844 438.789062 293.535156 437.640625 290.632812 436.429688 C 287.726562 435.222656 284.847656 433.949219 282 432.617188 C 279.148438 431.28125 276.328125 429.886719 273.539062 428.433594 C 270.75 426.976562 267.992188 425.464844 265.269531 423.890625 C 262.542969 422.316406 259.855469 420.683594 257.199219 418.996094 C 254.546875 417.304688 251.929688 415.558594 249.347656 413.757812 C 246.769531 411.953125 244.230469 410.097656 241.730469 408.183594 C 239.230469 406.273438 236.777344 404.308594 234.359375 402.289062 C 232.539062 401.453125 230.644531 400.84375 228.671875 400.46875 C 226.703125 400.089844 224.71875 399.953125 222.714844 400.058594 C 220.710938 400.164062 218.75 400.507812 216.832031 401.089844 C 214.914062 401.671875 213.089844 402.472656 211.367188 403.5 C 206.324219 406.851562 201.390625 410.359375 196.5625 414.015625 C 191.734375 417.675781 187.027344 421.480469 182.433594 425.425781 C 177.839844 429.375 173.375 433.460938 169.035156 437.6875 C 164.691406 441.910156 160.488281 446.261719 156.414062 450.746094 C 152.339844 455.226562 148.410156 459.832031 144.621094 464.558594 C 140.832031 469.28125 137.195312 474.121094 133.703125 479.070312 C 130.210938 484.019531 126.878906 489.070312 123.699219 494.226562 C 120.519531 499.378906 117.5 504.628906 114.644531 509.96875 C 111.789062 515.308594 109.097656 520.734375 106.578125 526.238281 C 104.054688 531.746094 101.703125 537.324219 99.527344 542.976562 C 97.347656 548.628906 95.347656 554.339844 93.519531 560.117188 C 91.695312 565.890625 90.046875 571.714844 88.578125 577.589844 C 87.113281 583.46875 85.828125 589.382812 84.726562 595.339844 C 83.621094 601.292969 82.703125 607.277344 81.96875 613.289062 C 81.234375 619.300781 80.6875 625.328125 80.324219 631.375 C 79.960938 637.421875 79.785156 643.472656 79.796875 649.527344 C 79.796875 650.355469 79.835938 651.179688 79.914062 652 C 79.996094 652.820312 80.117188 653.636719 80.277344 654.449219 C 80.4375 655.257812 80.636719 656.058594 80.878906 656.847656 C 81.117188 657.640625 81.394531 658.414062 81.710938 659.179688 C 82.027344 659.941406 82.378906 660.6875 82.769531 661.414062 C 83.15625 662.144531 83.582031 662.851562 84.039062 663.539062 C 84.5 664.226562 84.988281 664.886719 85.515625 665.527344 C 86.039062 666.164062 86.589844 666.773438 87.175781 667.359375 C 87.757812 667.941406 88.371094 668.496094 89.007812 669.019531 C 89.648438 669.542969 90.308594 670.035156 90.996094 670.496094 C 91.683594 670.953125 92.390625 671.378906 93.117188 671.765625 C 93.847656 672.15625 94.59375 672.507812 95.355469 672.824219 C 96.117188 673.140625 96.894531 673.417969 97.6875 673.65625 C 98.476562 673.894531 99.277344 674.097656 100.085938 674.257812 C 100.898438 674.417969 101.710938 674.539062 102.535156 674.617188 C 103.355469 674.699219 104.179688 674.738281 105.003906 674.738281 L 647.515625 674.738281 C 648.339844 674.738281 649.164062 674.699219 649.988281 674.617188 C 650.808594 674.539062 651.625 674.417969 652.433594 674.257812 C 653.246094 674.097656 654.042969 673.894531 654.835938 673.65625 C 655.625 673.417969 656.402344 673.140625 657.164062 672.824219 C 657.929688 672.507812 658.671875 672.15625 659.402344 671.765625 C 660.128906 671.378906 660.835938 670.953125 661.523438 670.496094 C 662.210938 670.035156 662.875 669.542969 663.511719 669.019531 C 664.152344 668.496094 664.761719 667.941406 665.34375 667.359375 C 665.929688 666.773438 666.484375 666.164062 667.007812 665.527344 C 667.53125 664.886719 668.023438 664.226562 668.480469 663.539062 C 668.941406 662.851562 669.363281 662.144531 669.753906 661.414062 C 670.140625 660.6875 670.496094 659.941406 670.808594 659.179688 C 671.125 658.414062 671.402344 657.640625 671.644531 656.847656 C 671.882812 656.058594 672.082031 655.257812 672.242188 654.449219 C 672.402344 653.636719 672.523438 652.820312 672.605469 652 C 672.6875 651.179688 672.726562 650.355469 672.726562 649.527344 C 672.722656 643.484375 672.53125 637.449219 672.160156 631.417969 C 671.785156 625.386719 671.230469 619.371094 670.492188 613.371094 C 669.75 607.375 668.828125 601.40625 667.726562 595.464844 C 666.621094 589.523438 665.335938 583.621094 663.871094 577.757812 C 662.410156 571.894531 660.765625 566.082031 658.949219 560.316406 C 657.128906 554.554688 655.136719 548.851562 652.96875 543.210938 C 650.804688 537.570312 648.464844 532 645.960938 526.5 C 643.453125 521.003906 640.78125 515.585938 637.945312 510.25 C 635.105469 504.914062 632.109375 499.667969 628.953125 494.515625 C 625.796875 489.363281 622.484375 484.3125 619.019531 479.363281 C 615.554688 474.410156 611.941406 469.570312 608.179688 464.839844 C 604.417969 460.109375 600.515625 455.496094 596.476562 451.003906 C 592.433594 446.511719 588.257812 442.148438 583.949219 437.910156 C 579.640625 433.671875 575.207031 429.570312 570.648438 425.605469 C 566.089844 421.636719 561.414062 417.8125 556.621094 414.128906 C 551.832031 410.449219 546.929688 406.917969 541.921875 403.535156 Z M 541.921875 403.535156 " fill-opacity="1" fill-rule="nonzero"/></svg>